Coordinates
version=1
nRows=7
nColumns=40
inDegrees=yes

Units are S.I. units (second, meters, Newtons, ...)
If the header above contains a line with 'inDegrees', this indicates whether rotational values are in degrees (yes) or radians (no).

endheader
time	pelvis_tilt	pelvis_list	pelvis_rotation	pelvis_tx	pelvis_ty	pelvis_tz	hip_flexion_r	hip_adduction_r	hip_rotation_r	knee_angle_r	knee_angle_r_beta	ankle_angle_r	subtalar_angle_r	mtp_angle_r	hip_flexion_l	hip_adduction_l	hip_rotation_l	knee_angle_l	knee_angle_l_beta	ankle_angle_l	subtalar_angle_l	mtp_angle_l	lumbar_extension	lumbar_bending	lumbar_rotation	arm_flex_r	arm_add_r	arm_rot_r	elbow_flex_r	pro_sup_r	wrist_flex_r	wrist_dev_r	arm_flex_l	arm_add_l	arm_rot_l	elbow_flex_l	pro_sup_l	wrist_flex_l	wrist_dev_l
     11.70000000	      2.58775374	      2.42359000	      4.95338970	      0.06776149	      1.31809406	     -0.00679928	     39.41293274	     -6.74679755	     -5.37491249	     55.62767641	      0.97088611	     -6.64748683	    -15.53353893	      0.00000000	     43.32480396	     -7.85887002	     -9.55817179	     98.16819749	      1.71335827	      1.46764716	    -17.52698840	      0.00000000	    -57.53599498	     -3.39973645	     -5.43265127	     56.35180228	     12.99263156	    -42.03024142	     35.83052444	     74.51774123	      0.00000000	      0.00000000	     59.90372666	     11.75286838	    -40.75753474	     32.30361080	      3.49060905	      0.00000000	      0.00000000
     11.71700000	      2.29508493	      2.85358918	      6.04236581	      0.06718821	      1.31773753	     -0.00790742	     36.70869832	     -7.45962247	     -6.23261213	     52.28313876	      0.91251291	     -8.21715694	    -15.27705970	      0.00000000	     46.33826149	     -7.35374410	     -8.98415419	    101.14623100	      1.76533476	      1.53187147	    -17.97771972	      0.00000000	    -57.30662646	     -3.01658954	     -6.19296861	     56.17389148	     12.88321477	    -42.47828243	     35.97607232	     74.60413536	      0.00000000	      0.00000000	     60.04908736	     11.84498556	    -40.46443033	     31.98790949	      3.49205036	      0.00000000	      0.00000000
     11.73300000	      1.93564197	      3.15034422	      7.16954031	      0.06662190	      1.31723964	     -0.00906139	     34.25304811	     -8.03088117	     -7.12784779	     49.61986828	      0.86603008	     -9.76978305	    -15.14008515	      0.00000000	     49.51606859	     -6.74839292	     -8.18870051	    103.78342907	      1.81136255	      1.92408994	    -18.24314467	      0.00000000	    -56.98441734	     -2.54878641	     -6.86164962	     55.93476642	     12.76036383	    -42.93085251	     36.07968443	     74.66028998	      0.00000000	      0.00000000	     60.15029608	     11.91677510	    -40.16663743	     31.68326713	      3.49598207	      0.00000000	      0.00000000
     11.75000000	      1.58216090	      3.39027307	      8.18044694	      0.06602374	      1.31664911	     -0.01011852	     32.13761887	     -8.42712426	     -7.86908776	     47.68320974	      0.83222901	    -11.02200080	    -15.11428429	      0.00000000	     52.57658558	     -6.17944638	     -7.52507605	    105.83122582	      1.84710334	      2.33174850	    -18.38238543	      0.00000000	    -56.65538803	     -2.09940790	     -7.47990319	     55.72642576	     12.64726597	    -43.25171056	     36.18096484	     74.71742886	      0.00000000	      0.00000000	     60.20947297	     11.97249948	    -39.86605494	     31.45006172	      3.49038557	      0.00000000	      0.00000000
     11.76700000	      1.25927190	      3.54284775	      9.04825949	      0.06553773	      1.31599116	     -0.01087045	     30.36647815	     -8.60938763	     -8.46315202	     46.56243016	      0.81266771	    -11.85714602	    -15.35523930	      0.00000000	     55.51510103	     -5.60828887	     -6.87494684	    107.22923955	      1.87150328	      2.53793825	    -18.53341338	      0.00000000	    -56.31275877	     -1.67518259	     -7.99262011	     55.51640483	     12.52208801	    -43.42242590	     36.23653010	     74.88664364	      0.00000000	      0.00000000	     60.17493422	     11.98800843	    -39.48388503	     31.31118221	      3.34175280	      0.00000000	      0.00000000
     11.78300000	      1.31580097	      4.02176099	      9.12688926	      0.06536985	      1.31586739	     -0.01073286	     28.72158003	     -8.69956880	     -8.16011783	     46.44992919	      0.81070420	    -12.14321656	    -15.32836500	      0.00000000	     57.65548830	     -5.44819661	     -6.95473340	    108.01247097	      1.88517325	      2.76072283	    -18.55682101	      0.00000000	    -56.40628971	     -2.01546837	     -8.33475839	     55.37617206	     12.38087855	    -43.46443583	     36.23878782	     74.83956401	      0.00000000	      0.00000000	     60.19135877	     12.06430569	    -39.40745298	     31.28044624	      3.54382540	      0.00000000	      0.00000000
     11.80000000	      0.83206267	      3.97399218	      9.83260233	      0.06489244	      1.31516762	     -0.01141658	     27.83736537	     -8.73942276	     -8.73886502	     46.54907892	      0.81243469	    -13.20054162	    -15.49989810	      0.00000000	     60.32070096	     -4.85407356	     -6.30312748	    108.19177214	      1.88830265	      3.37260359	    -18.93701959	      0.00000000	    -55.88884226	     -1.51397006	     -8.68188767	     55.19578202	     12.27286441	    -43.39733831	     36.27599694	     74.88186107	      0.00000000	      0.00000000	     60.18403033	     11.97695239	    -39.18628528	     31.04077446	      3.48729194	      0.00000000	      0.00000000
